<?xml version="1.0" encoding="UTF-8"?>
<svg id="Layer_1" xmlns="http://www.w3.org/2000/svg" version="1.1" viewBox="0 0 327.39 59.4">
  
  
  <path fill="currentColor" d="M25.58,48.95c-1.53.23-2.96-.82-3.19-2.35l-4.76-31.46c-.23-1.53.82-2.96,2.35-3.19,1.53-.23,2.96.82,3.19,2.35l4.76,31.46c.23,1.53-.82,2.96-2.35,3.19"></path>
  <path fill="currentColor" d="M15.22,48.95c1.53.23,2.96-.82,3.19-2.35l4.76-31.46c.23-1.53-.82-2.96-2.35-3.19-1.53-.23-2.96.82-3.19,2.35l-4.76,31.46c-.23,1.53.82,2.96,2.35,3.19"></path>
  <path fill="currentColor" d="M23.17,14.31l.63,4.14s-.11-.31-.48-.2c-.69.21-.84,1.43-.84,1.43l.69-5.37Z"></path>
  <path fill="currentColor" d="M22.39,46.58l-.63-4.14s.11.31.48.2c.69-.21.84-1.43.84-1.43l-.69,5.37Z"></path>
  <path fill="currentColor" d="M35.11,48.95c-1.53.23-2.96-.82-3.19-2.35l-4.76-31.46c-.23-1.53.82-2.96,2.35-3.19,1.53-.23,2.96.82,3.19,2.35l4.76,31.46c.23,1.53-.82,2.96-2.35,3.19"></path>
  <path fill="currentColor" d="M24.74,48.95c1.53.23,2.96-.82,3.19-2.35l4.76-31.46c.23-1.53-.82-2.96-2.35-3.19-1.53-.23-2.96.82-3.19,2.35l-4.76,31.46c-.23,1.53.82,2.96,2.35,3.19"></path>
  <path fill="currentColor" d="M32.7,14.31l.63,4.14s-.11-.31-.48-.2c-.69.21-.84,1.43-.84,1.43l.69-5.37Z"></path>
  <path fill="currentColor" d="M31.92,46.58l-.63-4.14s.11.31.48.2c.69-.21.84-1.43.84-1.43l-.69,5.37Z"></path>
  <path fill="currentColor" d="M44.67,48.95c-1.53.23-2.96-.82-3.19-2.35l-4.76-31.46c-.23-1.53.82-2.96,2.35-3.19,1.53-.23,2.96.82,3.19,2.35l4.76,31.46c.23,1.53-.82,2.96-2.35,3.19"></path>
  <path fill="currentColor" d="M34.31,48.95c1.53.23,2.96-.82,3.19-2.35l4.76-31.46c.23-1.53-.82-2.96-2.35-3.19-1.53-.23-2.96.82-3.19,2.35l-4.76,31.46c-.23,1.53.82,2.96,2.35,3.19"></path>
  <path fill="currentColor" d="M42.26,14.31l.63,4.14s-.11-.31-.48-.2c-.69.21-.84,1.43-.84,1.43l.69-5.37Z"></path>
  <path fill="currentColor" d="M41.48,46.58l-.63-4.14s.11.31.48.2c.69-.21.84-1.43.84-1.43l-.69,5.37Z"></path>
  <path fill="currentColor" d="M43.84,48.94c1.53.23,2.96-.82,3.19-2.35l3.39-22.41c.23-1.53-.82-2.96-2.35-3.19-1.53-.23-2.96.82-3.19,2.35l-3.39,22.41c-.23,1.53.82,2.96,2.35,3.19"></path>
  <polygon fill="currentColor" points="65.69 32.12 62.55 34.92 60.65 48.41 53.52 48.41 58.53 12.76 65.66 12.76 64.04 24.27 76.1 12.76 85.73 12.76 71.29 26.72 81.02 48.41 72.52 48.41 65.69 32.12"></polygon>
  <polygon fill="currentColor" points="84.84 48.41 89.85 12.76 96.98 12.76 91.97 48.41 84.84 48.41"></polygon>
  <polygon fill="currentColor" points="109.49 32.12 106.34 34.92 104.45 48.41 97.32 48.41 102.33 12.76 109.46 12.76 107.84 24.27 119.9 12.76 129.52 12.76 115.09 26.72 124.82 48.41 116.31 48.41 109.49 32.12"></polygon>
  <path fill="currentColor" d="M134.4,30.59h0c-.87,6.16,3.42,11.15,9.59,11.15s11.86-4.99,12.72-11.15c.87-6.16-3.42-11.15-9.59-11.15s-11.85,4.99-12.72,11.15M164.04,30.59c-1.43,10.18-10.9,18.49-21.09,18.49s-17.32-8.3-15.89-18.49c1.43-10.19,10.9-18.49,21.08-18.49s17.32,8.3,15.89,18.49Z"></path>
  <path fill="currentColor" d="M226.38,35.27c-1.07,7.64-8.15,13.8-15.74,13.8s-12.94-6.16-11.92-13.75l3.17-22.56h7.13l-3.16,22.51c-.25,1.78.23,3.46,1.32,4.74,1.09,1.27,2.68,1.94,4.46,1.94s3.51-.66,4.96-1.94c1.45-1.27,2.34-2.9,2.64-4.68h-.05l3.17-22.56h7.13l-3.16,22.51h.05Z"></path>
  <polygon fill="currentColor" points="259.79 12.76 258.79 19.89 248.91 19.89 244.89 48.46 237.77 48.46 241.78 19.89 231.85 19.89 232.85 12.76 259.79 12.76"></polygon>
  <path fill="currentColor" d="M265.13,30.59h0c-.87,6.16,3.42,11.15,9.58,11.15s11.85-4.99,12.72-11.15c.87-6.16-3.42-11.15-9.59-11.15s-11.85,4.99-12.72,11.15M294.77,30.59c-1.43,10.18-10.9,18.49-21.09,18.49s-17.32-8.3-15.89-18.49c1.43-10.19,10.9-18.49,21.08-18.49s17.32,8.3,15.89,18.49Z"></path>
  <path fill="currentColor" d="M308.03,33.34c-1.13-.31-3.24-.87-5.08-2.24-2.59-1.88-3.78-4.63-3.45-8.05.25-2.85,1.52-5.35,3.62-7.28,3.03-2.75,6.96-3.51,8.8-3.51,5.19,0,7.83,1.88,10.19,3.56l1.06.76-4.57,6.06-1.16-.81c-2.08-1.48-3.43-2.44-6.53-2.44-.46,0-2.29.36-3.34,1.32-.35.31-.78.87-.9,2.04-.21,1.83.92,2.85,4.07,3.67.39.1.68.2.98.31,3.25,1.17,5.67,2.75,7.23,4.74,1.55,2.04,2.18,4.43,1.82,6.98-.35,2.5-1.78,5.09-3.85,7.08-2.42,2.34-5.51,3.67-8.72,3.67-1.58,0-3.7-.1-6.14-.87-3.07-1.02-5.67-2.8-7.75-5.4l5.88-4.89c3.2,4.02,7.43,4.02,9.01,4.02,2.95,0,4.3-2.7,4.43-3.62.27-1.94-1.67-3.72-5.21-4.99l-.15-.05-.25-.05Z"></path>
  <polygon fill="currentColor" points="185.54 12.57 183.45 12.57 160.26 48.05 168.25 48.05 170.09 45.43 181.15 45.42 184.9 38.55 174.68 38.57 182.35 26.76 186.23 38.56 188.55 45.34 189.49 48.05 197.38 48.05 185.54 12.57"></polygon>
</svg>